<?xml version="1.0" encoding="utf-8"?>
<!-- Generator: Adobe Illustrator 27.5.0, SVG Export Plug-In . SVG Version: 6.00 Build 0)  -->
<svg version="1.1" id="Layer_1" xmlns="http://www.w3.org/2000/svg" xmlns:xlink="http://www.w3.org/1999/xlink" x="0px" y="0px"
	 viewBox="0 0 459 165.1" style="enable-background:new 0 0 459 165.1;" xml:space="preserve">
<style type="text/css">
	.st0{fill:#0046AF;}
	.st1{fill:#0A1964;}
	.st2{fill:#D80004;}
	.st3{fill:#77B5F0;}
	.st4{fill:#0D52F6;}
	.st5{fill:#FFFFFF;}
</style>
<g>
	<path class="st2" d="M244.7,50c-30.9-2.2-56.7,22.3-56.7,52.8l0,0.3c0,0.2,0,0.6,0.1,1.2c0.4,5.3,5.3,9,10.6,8
		c0.5-0.1,1-0.2,1.5-0.3c4.6-0.7,8.1-4.7,7.8-9.4l0,0c0.1-18.1,14.8-32.7,32.9-32.7c18.1,0,32.9,14.8,32.9,32.9
		c0,17.7-15.2,32.8-33.3,33c-2.2-0.2-4.8-0.6-5.6-0.8c-1.8-0.6-3.8-1.7-6-2.9c-8.6-4.6-21.6-11.5-39.6-0.9c-1.8,1-3.5,2.2-5.2,3.3
		c-6.2,4.1-10.3,6.5-14.4,5.7c-2.1-0.4-3.5-1.4-4.8-3.2c-2.7-4.2-5.4-14.2-2.5-37.9c2.2-18.3,7-39,11.3-57.2c0.9-4,3.2-14.8,4-18.6
		c2.4-10.8-4.7-21.4-15.6-23.2l0,0c-0.4,2.2-6.6,31.9-7.8,37.3c-11.6,50.1-19.4,90.1-6,110.6c4.2,6.4,10.4,10.6,17.8,11.9
		c1.8,0.3,3.5,0.5,5.2,0.5c9.8,0,17.8-5.2,23.8-9.1c1.5-1,3-2,4.4-2.8c8.3-4.9,12.5-2.7,20,1.3c2.8,1.5,5.6,3,8.8,4.1
		c3.5,1.2,8.9,1.7,11.1,1.9l0.7,0c31,0,56-26.1,53.5-57.3C291.6,72.6,270.6,51.8,244.7,50z"/>
	<path class="st2" d="M430.5,152.2c-14.1,0-25.8-9.8-30.7-25.7c-7.5-24.6-1.6-79.8,1.2-102.6c0.7-5.6,5.8-9.5,11.4-8.6l0,0
		c5.4,0.8,9.1,5.8,8.4,11.2c-2.8,21.5-8.4,73.1-1.9,94.3c2.2,7.3,6.5,11.5,11.6,11.5c3.8,0,7.4-2.5,10-6.7c2.4-3.7,6.9-5.4,11.2-4.1
		v0c6.4,1.9,9.2,9.4,5.6,15.1c-6.3,9.8-16,15.7-26.7,15.8C430.6,152.2,430.6,152.2,430.5,152.2z"/>
	<path class="st2" d="M377.3,48.1l0.9-1.9c1.5-3.3,5.2-5,8.7-3.9c8.5,2.7,25.6,6.8,49.2,6.6c3.9,0,7.1,3,7.3,6.9v0
		c0.3,7.2-5.5,13.3-12.7,13.2c-21.8-0.1-37.3-3.4-46.8-6.3C377.7,60.8,374.6,53.9,377.3,48.1z"/>
	<path class="st2" d="M394.7,141.3c0-3.9-2.3-7.5-5.9-8.9c-1.4-0.5-2.2-1.2-2.8-1.8c-5.8-5.7-5.7-21.2-5.7-32.5c0-6.4,0-12-0.8-16.6
		c-2.7-16.1-11.2-24.1-17.9-28c-8.2-4.8-22.6-8.7-46-2.4c-5.6,1.5-8.7,7.6-6.8,13v0c1.8,4.9,6.9,7.6,11.9,6.3
		c13.2-3.5,24.3-3.5,30.7,0.3c4.4,2.6,7.1,7.2,8.3,14.1c0.3,1.5,0.4,3.5,0.4,5.8c-3.2-0.8-6.9-1.5-10.7-2.1
		c-19.1-2.9-33.4-0.7-42.5,6.7c-5.8,4.7-12.3,13.7-10.3,30.2c1.8,15.2,13.7,26.8,30.2,29.6c2.3,0.4,4.7,0.6,7.2,0.6
		c11,0,23.8-4,34.5-14.6c1,1.4,2.1,2.7,3.3,3.9c2.7,2.7,5.8,4.7,9.3,6.1c6.5,2.6,13.6-2.3,13.5-9.3L394.7,141.3z M330.3,135.1
		c-6-1-12.8-4.8-13.7-12.3c-1.1-8.9,2-11.4,3-12.2c6.5-5.2,22.6-3.9,36.3-0.7c2.7,0.6,4.6,2.9,4.9,5.7c0,0,0,0.1,0,0.1
		c0.1,1.4-0.2,2.9-1,4.1C353.8,129.1,343.4,137.4,330.3,135.1z"/>
	<path class="st2" d="M150.2,19.8l4-19.8c-27.4,1.8-47.5,20-55.9,37.8c-5.7,12.1-9.9,39,2.4,65.1c11.4,24.3,8.7,33.9,7,36.9
		c-0.6,1.1-2.4,4.3-10.5,5.2c-4.7,0.5-6.2-0.9-6.8-1.4c-5.7-5.3-5.3-23.6-4.9-35.7c0.2-7.4,0.4-13.8-0.5-18.8
		c-2.9-17-12.1-25.1-19.4-28.9c-17.1-9-39.9-3.5-53.1,1.1c-5.6,2-8.3,8.3-5.8,13.7v0c2.2,4.6,7.5,6.9,12.4,5.2c2.8-1,6.1-2,9.7-2.8
		c12-2.8,21.5-2.7,27.6,0.5c3.1,1.6,7.3,4.8,8.9,14.5c0.3,1.9,0.4,4.7,0.3,8.1c-3.7-0.9-8-1.8-12.7-2.6c-19.1-2.9-33.4-0.7-42.5,6.7
		c-5.8,4.7-12.3,13.7-10.3,30.2c1.8,15.2,13.7,26.8,30.2,29.6c2.3,0.4,4.7,0.6,7.2,0.6c10.7,0,23.2-3.8,33.7-13.9
		c1.5,2.7,3.3,5.1,5.5,7.2c3.5,3.3,9.5,6.9,18.6,6.9c1.2,0,2.5-0.1,3.8-0.2c15.2-1.6,22.4-9.1,25.9-15.2c7.2-12.7,5.1-30.8-6.4-55.2
		c-1.7-3.6-3.1-7.6-4-11.7l15.5-3.8l3.9-21.6l-21.4,5.3c0.3-6.2,1.5-11.9,3.6-16.4C122.7,33,131.3,24.7,150.2,19.8z M65.1,126.6
		c-5.6,10.2-16.8,20.5-31.2,18c-6-1-12.8-4.8-13.7-12.3c-1.1-8.9,2-11.4,3-12.2c6.9-5.6,24.8-3.7,39.1,0c1.9,0.5,3.2,2.2,3.3,4.1
		c0,0,0,0,0,0C65.6,125.1,65.5,125.9,65.1,126.6z"/>
</g>
</svg>
